HIERARCHY
ROOT hip
{
  OFFSET 0 0 0
  CHANNELS 6 Xposition Yposition Zposition Zrotation Yrotation Xrotation
  JOINT abdomen
  {
    OFFSET 0 20.6881 -0.73152
    CHANNELS 3 Zrotation Xrotation Yrotation
    JOINT chest
    {
      OFFSET 0 11.7043 -0.48768
      CHANNELS 3 Zrotation Xrotation Yrotation
      JOINT neck
      {
        OFFSET 0 22.1894 -2.19456
        CHANNELS 3 Zrotation Xrotation Yrotation
        JOINT head
        {
          OFFSET -0.24384 7.07133 1.2192
          CHANNELS 3 Zrotation Xrotation Yrotation
          JOINT leftEye
          {
            OFFSET 4.14528 8.04674 8.04672
            CHANNELS 3 Zrotation Xrotation Yrotation
            End Site
            {
              OFFSET 1 0 0
            }
          }
          JOINT rightEye
          {
            OFFSET -3.6576 8.04674 8.04672
            CHANNELS 3 Zrotation Xrotation Yrotation
            End Site
            {
              OFFSET 1 0 0
            }
          }
        }
      }
      JOINT rCollar
      {
        OFFSET -2.68224 19.2634 -4.8768
        CHANNELS 3 Zrotation Xrotation Yrotation
        JOINT rShldr
        {
          OFFSET -8.77824 -1.95073 1.46304
          CHANNELS 3 Zrotation Xrotation Yrotation
          JOINT rForeArm
          {
            OFFSET -28.1742 -1.7115 0.48768
            CHANNELS 3 Zrotation Xrotation Yrotation
            JOINT rHand
            {
              OFFSET -22.5879 0.773209 7.07136
              CHANNELS 3 Zrotation Xrotation Yrotation
              JOINT rThumb1
              {
                OFFSET -1.2192 -0.487915 3.41376
                CHANNELS 3 Zrotation Xrotation Yrotation
                JOINT rThumb2
                {
                  OFFSET -3.37035 -0.52449 3.41376
                  CHANNELS 3 Zrotation Xrotation Yrotation
                  End Site
                  {
                    OFFSET -1.78271 -1.18214 1.43049
                  }
                }
              }
              JOINT rIndex1
              {
                OFFSET -7.75947 0.938293 5.60832
                CHANNELS 3 Zrotation Xrotation Yrotation
                JOINT rIndex2
                {
                  OFFSET -2.54057 -0.884171 1.56538
                  CHANNELS 3 Zrotation Xrotation Yrotation
                  End Site
                  {
                    OFFSET -1.62519 -0.234802 1.16502
                  }
                }
              }
              JOINT rMid1
              {
                OFFSET -8.24714 1.18213 3.41376
                CHANNELS 3 Zrotation Xrotation Yrotation
                JOINT rMid2
                {
                  OFFSET -3.10165 -0.590103 1.0647
                  CHANNELS 3 Zrotation Xrotation Yrotation
                  End Site
                  {
                    OFFSET -2.48547 -0.328903 0.83742
                  }
                }
              }
              JOINT rRing1
              {
                OFFSET -8.82822 0.546677 1.51678
                CHANNELS 3 Zrotation Xrotation Yrotation
                JOINT rRing2
                {
                  OFFSET -2.60934 -0.819778 -0.0198488
                  CHANNELS 3 Zrotation Xrotation Yrotation
                  End Site
                  {
                    OFFSET -2.33842 -0.294052 0.168128
                  }
                }
              }
              JOINT rPinky1
              {
                OFFSET -8.27202 -0.0477905 -0.4584
                CHANNELS 3 Zrotation Xrotation Yrotation
                JOINT rPinky2
                {
                  OFFSET -1.82734 -0.647385 -0.700984
                  CHANNELS 3 Zrotation Xrotation Yrotation
                  End Site
                  {
                    OFFSET -1.69225 -0.51767 -0.607171
                  }
                }
              }
            }
          }
        }
      }
      JOINT lCollar
      {
        OFFSET 2.68224 19.2634 -4.8768
        CHANNELS 3 Zrotation Xrotation Yrotation
        JOINT lShldr
        {
          OFFSET 8.77824 -1.95073 1.46304
          CHANNELS 3 Zrotation Xrotation Yrotation
          JOINT lForeArm
          {
            OFFSET 28.1742 -1.7115 0.48768
            CHANNELS 3 Zrotation Xrotation Yrotation
            JOINT lHand
            {
              OFFSET 22.5879 0.773209 7.07136
              CHANNELS 3 Zrotation Xrotation Yrotation
              JOINT lThumb1
              {
                OFFSET 1.2192 -0.487915 3.41376
                CHANNELS 3 Zrotation Xrotation Yrotation
                JOINT lThumb2
                {
                  OFFSET 3.37035 -0.52449 3.41376
                  CHANNELS 3 Zrotation Xrotation Yrotation
                  End Site
                  {
                    OFFSET 1.78271 -1.18214 1.43049
                  }
                }
              }
              JOINT lIndex1
              {
                OFFSET 7.75947 0.938293 5.60832
                CHANNELS 3 Zrotation Xrotation Yrotation
                JOINT lIndex2
                {
                  OFFSET 2.54057 -0.884171 1.56538
                  CHANNELS 3 Zrotation Xrotation Yrotation
                  End Site
                  {
                    OFFSET 1.62519 -0.234802 1.16502
                  }
                }
              }
              JOINT lMid1
              {
                OFFSET 8.24714 1.18213 3.41376
                CHANNELS 3 Zrotation Xrotation Yrotation
                JOINT lMid2
                {
                  OFFSET 3.10165 -0.590103 1.0647
                  CHANNELS 3 Zrotation Xrotation Yrotation
                  End Site
                  {
                    OFFSET 2.48547 -0.328903 0.83742
                  }
                }
              }
              JOINT lRing1
              {
                OFFSET 8.82822 0.546677 1.51678
                CHANNELS 3 Zrotation Xrotation Yrotation
                JOINT lRing2
                {
                  OFFSET 2.60934 -0.819778 -0.0198488
                  CHANNELS 3 Zrotation Xrotation Yrotation
                  End Site
                  {
                    OFFSET 2.33842 -0.294052 0.168128
                  }
                }
              }
              JOINT lPinky1
              {
                OFFSET 8.27202 -0.0477905 -0.4584
                CHANNELS 3 Zrotation Xrotation Yrotation
                JOINT lPinky2
                {
                  OFFSET 1.82734 -0.647385 -0.700984
                  CHANNELS 3 Zrotation Xrotation Yrotation
                  End Site
                  {
                    OFFSET 1.69225 -0.51767 -0.607171
                  }
                }
              }
            }
          }
        }
      }
    }
  }
  JOINT rButtock
  {
    OFFSET -8.77824 4.35084 1.2192
    CHANNELS 3 Zrotation Xrotation Yrotation
    JOINT rThigh
    {
      OFFSET 0 -1.70687 -2.19456
      CHANNELS 3 Zrotation Xrotation Yrotation
      JOINT rShin
      {
        OFFSET 0 -36.8199 0.73152
        CHANNELS 3 Zrotation Xrotation Yrotation
        JOINT rFoot
        {
          OFFSET 0.73152 -45.1104 -5.12064
          CHANNELS 3 Zrotation Xrotation Yrotation
          End Site
          {
            OFFSET -1.1221 -3.69964 12.103
          }
        }
      }
    }
  }
  JOINT lButtock
  {
    OFFSET 8.77824 4.35084 1.2192
    CHANNELS 3 Zrotation Xrotation Yrotation
    JOINT lThigh
    {
      OFFSET 0 -1.70687 -2.19456
      CHANNELS 3 Zrotation Xrotation Yrotation
      JOINT lShin
      {
        OFFSET 0 -36.8199 0.73152
        CHANNELS 3 Zrotation Xrotation Yrotation
        JOINT lFoot
        {
          OFFSET -0.73152 -45.1104 -5.12064
          CHANNELS 3 Zrotation Xrotation Yrotation
          End Site
          {
            OFFSET 1.1221 -3.69964 12.103
          }
        }
      }
    }
  }
}
MOTION
Frames:	4
Frame Time:	0.00833333
150.67 85.3326 6.74638 0.0 0.0 0.0 1.16875 -0.00493882 0.0322836 0.322754 -0.00472403 0.0559151 -2.49342e-16 0.0 -2.36057e-16 -1.55301e-16 3.18055e-15 -6.83322e-16 -0.0 0.0 0.0 -0.0 0.0 0.0 4.84078e-17 6.21202e-18 0.0 1.16456e-15 -1.2424e-17 -1.39149e-15 -1.59028e-14 1.61016e-14 -6.67917e-14 -2.3843e-13 3.55328e-14 -4.51639e-13 -5.50329e-13 1.12593e-13 -1.13546e-12 -9.52179e-13 1.94014e-13 -1.96161e-12 -5.45863e-13 1.11319e-13 -1.145e-12 7.73091 5.47488 0.417314 -5.50286e-13 1.12612e-13 -1.13228e-12 2.90554 0.965183 0.102902 -5.46813e-13 1.1291e-13 -1.13466e-12 10.2786 0.731801 0.0259123 -5.56398e-13 1.14102e-13 -1.1291e-12 2.22167 -0.733487 -0.20892 5.09686e-17 9.70628e-18 -1.98785e-16 -3.94657e-15 8.69683e-17 -3.37934e-15 -2.79789e-14 2.78299e-15 -2.54444e-14 -2.47624e-13 5.97845e-14 -4.92986e-13 -5.90602e-13 1.35608e-13 -1.13864e-12 -1.01738e-12 2.3218e-13 -1.95366e-12 -5.94366e-13 1.37161e-13 -1.1291e-12 -7.73091 5.47488 -0.417314 -5.90589e-13 1.35969e-13 -1.13864e-12 -2.90554 0.965183 -0.102902 -5.98808e-13 1.35869e-13 -1.13466e-12 -10.2786 0.731801 -0.0259123 -5.87806e-13 1.35571e-13 -1.13864e-12 -2.22167 -0.733487 0.20892 -2.03217e-16 0.0 -3.88251e-19 1.35583 -5.84651 -0.122717 0.001132 5.034 0.0414042 -0.48084 0.811089 0.0710864 2.03217e-16 0.0 3.88251e-19 0.426405 -1.91991 0.00997254 0.0089897 -2.0786 0.0740853 0.459304 3.99698 -0.132491
146.174 83.4783 2.59471 42.8206 -82.6159 -37.1337 -1.09309 -2.52745 0.603757 1.81971 -1.55596 0.317378 -3.53813 4.35076 -1.48824 5.5445 -5.31307 -2.13965 -0.0 0.0 0.0 -0.0 0.0 0.0 5.98336e-14 3.51343e-13 5.30359e-14 22.564 -4.16581 -3.48709 -3.09805 -1.24025 5.00543 0.0428811 4.59744 0.638645 -8.66903e-10 -1.13175e-09 1.95845e-09 -1.47109e-09 -1.963e-09 3.39736e-09 -8.66899e-10 -1.13175e-09 1.95844e-09 7.73091 5.47488 0.417314 -8.66903e-10 -1.13175e-09 1.95846e-09 2.90554 0.965183 0.102902 -8.66898e-10 -1.13175e-09 1.95845e-09 10.2786 0.731801 0.0259123 -8.66907e-10 -1.13175e-09 1.95846e-09 2.22167 -0.733487 -0.20892 5.9824e-14 3.51343e-13 5.28554e-14 -26.188 5.16585 3.11353 7.61416 -4.57532 -10.4353 -0.00741599 1.93117 -0.270875 -9.61924e-10 4.27249e-10 -4.83334e-10 -1.66591e-09 7.39399e-10 -8.3274e-10 -9.61927e-10 4.27251e-10 -4.83327e-10 -7.73091 5.47488 -0.417314 -9.61924e-10 4.2725e-10 -4.83333e-10 -2.90554 0.965183 -0.102902 -9.61932e-10 4.2725e-10 -4.83329e-10 -10.2786 0.731801 -0.0259123 -9.61922e-10 4.27249e-10 -4.83334e-10 -2.22167 -0.733487 0.20892 -2.03217e-16 0.0 -3.88251e-19 -0.0782918 -10.075 -0.190791 0.0210157 13.1215 0.197649 -1.12689 -4.82929 -4.29266 2.03217e-16 0.0 3.88251e-19 -1.69059 -6.89507 -0.501468 -0.00637945 7.46942 -0.0741903 0.344603 -2.7662 -0.69099
146.145 83.4681 2.56009 39.5004 -82.8214 -33.9375 -3.45398 -5.2025 1.21135 3.42745 -3.19476 0.595264 -7.03904 8.95091 -3.09064 10.9836 -10.9183 -4.46148 -0.0 0.0 0.0 -0.0 0.0 0.0 1.24823e-13 7.22283e-13 1.13326e-13 45.852 -8.49474 -7.23069 -6.13623 -2.51849 10.3007 -0.0247044 9.46857 1.32941 -1.82266e-09 -2.37687e-09 4.0751e-09 -3.09351e-09 -4.12279e-09 7.06945e-09 -1.82266e-09 -2.37687e-09 4.07508e-09 7.73091 5.47488 0.417314 -1.82266e-09 -2.37687e-09 4.0751e-09 2.90554 0.965183 0.102902 -1.82266e-09 -2.37687e-09 4.0751e-09 10.2786 0.731801 0.0259123 -1.82266e-09 -2.37687e-09 4.0751e-09 2.22167 -0.733487 -0.20892 1.24803e-13 7.22279e-13 1.13167e-13 -54.502 10.6027 6.495 13.8969 -8.92746 -21.7015 0.00468118 3.93991 -0.553683 -2.02554e-09 9.1123e-10 -9.97542e-10 -3.50783e-09 1.5771e-09 -1.71845e-09 -2.02555e-09 9.11233e-10 -9.97539e-10 -7.73091 5.47488 -0.417314 -2.02554e-09 9.11232e-10 -9.9754e-10 -2.90554 0.965183 -0.102902 -2.02555e-09 9.11232e-10 -9.97536e-10 -10.2786 0.731801 -0.0259123 -2.02554e-09 9.1123e-10 -9.97542e-10 -2.22167 -0.733487 0.20892 -2.03217e-16 0.0 -3.88251e-19 -1.62212 -14.557 -0.275295 -0.00989303 21.6849 0.378851 -2.74399 -10.6411 -9.0147 2.03217e-16 0.0 3.88251e-19 -4.04155 -12.1507 -1.0675 0.0330552 17.5496 -0.240492 0.0757927 -9.90637 -1.3092
146.093 83.4734 2.52342 36.8867 -83.0521 -31.5402 -5.4647 -7.56935 1.76028 4.85623 -4.65802 0.842737 -9.9219 13.0166 -4.56952 15.4059 -15.8485 -6.64503 -0.0 0.0 0.0 -0.0 0.0 0.0 1.79404e-13 1.05402e-12 1.59108e-13 66.1498 -12.3102 -10.682 -8.65123 -3.60732 15.0433 -0.186526 13.7854 1.96643 -2.59961e-09 -3.39547e-09 5.87763e-09 -4.41137e-09 -5.8894e-09 1.0196e-08 -2.5996e-09 -3.39546e-09 5.87761e-09 7.73091 5.47488 0.417314 -2.59961e-09 -3.39547e-09 5.87763e-09 2.90554 0.965183 0.102902 -2.5996e-09 -3.39547e-09 5.87763e-09 10.2786 0.731801 0.0259123 -2.59961e-09 -3.39547e-09 5.87763e-09 2.22167 -0.733487 -0.20892 1.7937e-13 1.05401e-12 1.58964e-13 -80.2925 15.3112 9.64817 18.0309 -11.9044 -31.9711 0.032769 5.79299 -0.816332 -2.88459e-09 1.28148e-09 -1.44772e-09 -4.9957e-09 2.21773e-09 -2.49431e-09 -2.88459e-09 1.28148e-09 -1.44772e-09 -7.73091 5.47488 -0.417314 -2.88459e-09 1.28148e-09 -1.44772e-09 -2.90554 0.965183 -0.102902 -2.8846e-09 1.28148e-09 -1.44772e-09 -10.2786 0.731801 -0.0259123 -2.88459e-09 1.28148e-09 -1.44772e-09 -2.22167 -0.733487 0.20892 -2.03217e-16 0.0 -3.88251e-19 -2.97848 -18.5319 -0.336856 -0.0895997 29.2956 0.567568 -5.05484 -15.7275 -13.4883 2.03217e-16 0.0 3.88251e-19 -6.2015 -16.8401 -1.58128 0.123702 26.5649 -0.412281 -0.294121 -16.2849 -1.88174
